<svg xmlns="http://www.w3.org/2000/svg" width="400" height="400" viewBox="0 0 400 400">
  <rect width="400" height="400" fill="#0f172a" />
  <circle cx="200" cy="200" r="100" fill="#334155" />
  <path d="M200,120 L230,170 L290,180 L245,220 L255,280 L200,250 L145,280 L155,220 L110,180 L170,170 Z" fill="#94a3b8" />
  <text x="200" y="320" font-family="Arial, sans-serif" font-size="24" fill="#94a3b8" text-anchor="middle">BLOCKCHAIN POAP</text>
  <path d="M130,60 L150,80 L130,100 L110,80 Z" fill="#94a3b8" />
  <path d="M270,60 L290,80 L270,100 L250,80 Z" fill="#94a3b8" />
  <path d="M130,300 L150,320 L130,340 L110,320 Z" fill="#94a3b8" />
  <path d="M270,300 L290,320 L270,340 L250,320 Z" fill="#94a3b8" />
  <circle cx="200" cy="200" r="95" fill="none" stroke="#10b981" stroke-width="5" stroke-dasharray="15,10" />
</svg> 